<svg width="96" height="72" xmlns="http://www.w3.org/2000/svg" xmlns:xlink="http://www.w3.org/1999/xlink" xmlns:svgjs="http://svgjs.com/svgjs" fill="#fff" opacity=".302"><svg xmlns="http://www.w3.org/2000/svg" width="96" height="72" viewBox="0.667 0.5 94.667 71"><path paint-order="stroke fill markers" fill-rule="evenodd" d="M86.459 71.5H9.54a8.875 8.875 0 0 1-8.874-8.875V9.375A8.875 8.875 0 0 1 9.54.5H86.46a8.875 8.875 0 0 1 8.874 8.875v53.25A8.875 8.875 0 0 1 86.46 71.5zM21.375 10.854c-5.719 0-10.354 4.636-10.354 10.354 0 5.719 4.635 10.354 10.354 10.354 5.719 0 10.354-4.635 10.354-10.354 0-5.718-4.635-10.354-10.354-10.354zM12.5 59.666h71V38.958L67.32 22.777a2.219 2.219 0 0 0-3.138 0L39.125 47.833 28.86 37.57a2.218 2.218 0 0 0-3.137 0L12.5 50.79v8.875z"/></svg></svg>