<svg width="33" height="32" xmlns="http://www.w3.org/2000/svg" xmlns:xlink="http://www.w3.org/1999/xlink" xmlns:svgjs="http://svgjs.com/svgjs" viewBox="0.496 0 32.007 32" fill="#9ba29f"><svg xmlns="http://www.w3.org/2000/svg" width="33" height="32" viewBox="0.999 0.244 31.518 31.511"><path paint-order="stroke fill markers" fill-rule="evenodd" d="M32.406 9.503c-.12-2.525-.696-4.76-2.545-6.602C28.019 1.058 25.783.48 23.259.355c-2.602-.148-10.4-.148-13.001 0-2.518.12-4.753.696-6.603 2.538C1.806 4.736 1.237 6.972 1.11 9.496c-.148 2.601-.148 10.399 0 13 .12 2.525.696 4.76 2.545 6.603 1.85 1.842 4.079 2.419 6.603 2.545 2.601.148 10.399.148 13 0 2.525-.12 4.76-.696 6.603-2.545 1.842-1.842 2.418-4.078 2.545-6.602.148-2.602.148-10.393 0-12.994zm-3.36 15.785a5.318 5.318 0 0 1-2.996 2.995c-2.074.823-6.996.633-9.288.633s-7.221.183-9.289-.633a5.32 5.32 0 0 1-2.995-2.995c-.823-2.074-.633-6.996-.633-9.288 0-2.293-.182-7.221.633-9.289a5.319 5.319 0 0 1 2.995-2.995c2.075-.823 6.997-.633 9.289-.633s7.221-.182 9.288.633a5.318 5.318 0 0 1 2.995 2.995c.823 2.075.633 6.996.633 9.289 0 2.292.19 7.22-.633 9.288zM27.055 7.59a1.88 1.88 0 0 1-1.885 1.885 1.885 1.885 0 1 1 1.885-1.884zm-10.294.33A8.066 8.066 0 0 0 8.682 16a8.066 8.066 0 0 0 8.08 8.078A8.066 8.066 0 0 0 24.84 16a8.066 8.066 0 0 0-8.078-8.08zm0 13.332A5.261 5.261 0 0 1 11.51 16a5.257 5.257 0 0 1 5.252-5.253A5.258 5.258 0 0 1 22.014 16a5.262 5.262 0 0 1-5.252 5.252z"/></svg></svg>