<svg width="32" height="36" xmlns="http://www.w3.org/2000/svg" xmlns:xlink="http://www.w3.org/1999/xlink" xmlns:svgjs="http://svgjs.com/svgjs" viewBox="0.25 0 31.5 36" fill="#9ba29f"><svg xmlns="http://www.w3.org/2000/svg" width="32" height="36" viewBox="0 0 31.5 36"><path paint-order="stroke fill markers" fill-rule="evenodd" d="M31.5 3.708V36c-4.535-4.008-3.085-2.681-8.352-7.578l.954 3.33H3.69A3.699 3.699 0 0 1 0 28.044V3.708A3.699 3.699 0 0 1 3.69 0h24.12a3.699 3.699 0 0 1 3.69 3.708zm-5.13 17.064c0-5.796-2.593-10.494-2.593-10.494-2.591-1.944-5.058-1.89-5.058-1.89l-.251.288c3.06.936 4.482 2.286 4.482 2.286-4.276-2.344-9.299-2.344-13.446-.522-.666.306-1.063.522-1.063.522s1.495-1.422 4.735-2.358l-.18-.216s-2.466-.054-5.058 1.89c0 0-2.592 4.698-2.592 10.494 0 0 1.512 2.61 5.49 2.736 0 0 .665-.81 1.206-1.494-2.287-.684-3.15-2.124-3.15-2.124.264.185.701.425.738.45 3.038 1.701 7.354 2.259 11.232.63.63-.234 1.332-.576 2.07-1.062 0 0-.9 1.476-3.258 2.142.54.684 1.188 1.458 1.188 1.458 3.978-.126 5.508-2.736 5.508-2.736zM20.898 17.1c0 1.098-.81 1.998-1.836 1.998-1.008 0-1.836-.9-1.836-1.998 0-1.098.81-1.998 1.836-1.998s1.836.9 1.836 1.998zm-8.406-1.998c-1.026 0-1.836.9-1.836 1.998 0 1.098.828 1.998 1.836 1.998 1.026 0 1.836-.9 1.836-1.998.017-1.098-.81-1.998-1.836-1.998z"/></svg></svg>