<svg width="31" height="24" xmlns="http://www.w3.org/2000/svg" xmlns:xlink="http://www.w3.org/1999/xlink" xmlns:svgjs="http://svgjs.com/svgjs" viewBox="0.377 0 30.247 24" fill="#9ba29f"><svg xmlns="http://www.w3.org/2000/svg" width="31" height="24" viewBox="0 0 30.247 24"><path paint-order="stroke fill markers" fill-rule="evenodd" d="M3.583 4.896a1.181 1.181 0 0 0-.381-.988L.382.506V0h8.766l6.78 14.864L21.886 0h8.36v.506L27.833 2.82a.704.704 0 0 0-.268.675v17.01a.704.704 0 0 0 .268.675l2.358 2.313V24H18.328v-.507l2.446-2.37c.237-.237.237-.312.237-.675V6.703l-6.797 17.253h-.92L5.39 6.703v11.563c-.069.488.094.975.438 1.325l3.177 3.852v.507H0v-.5l3.176-3.859c.338-.35.495-.844.407-1.325V4.896z"/></svg></svg>