<svg width="33" height="27" xmlns="http://www.w3.org/2000/svg" xmlns:xlink="http://www.w3.org/1999/xlink" xmlns:svgjs="http://svgjs.com/svgjs" viewBox="0 0.099 33 26.802" fill="#9ba29f"><svg xmlns="http://www.w3.org/2000/svg" width="33" height="27" viewBox="0.75 0.381 32.012 26"><path paint-order="stroke fill markers" fill-rule="evenodd" d="M29.472 6.86c.02.285.02.569.02.853 0 8.674-6.601 18.668-18.668 18.668-3.717 0-7.17-1.077-10.074-2.946a13.56 13.56 0 0 0 1.584.081 13.14 13.14 0 0 0 8.145-2.802 6.573 6.573 0 0 1-6.134-4.55c.406.06.813.1 1.24.1a6.93 6.93 0 0 0 1.726-.223A6.562 6.562 0 0 1 2.05 9.603V9.52c.873.488 1.889.792 2.965.833A6.556 6.556 0 0 1 2.09 4.89c0-1.219.325-2.336.894-3.311a18.647 18.647 0 0 0 13.528 6.866 7.402 7.402 0 0 1-.162-1.503A6.558 6.558 0 0 1 22.91.38c1.89 0 3.596.792 4.794 2.072A12.92 12.92 0 0 0 31.87.868a6.544 6.544 0 0 1-2.885 3.616c1.32-.142 2.6-.508 3.778-1.016a14.106 14.106 0 0 1-3.29 3.392z"/></svg></svg>